<?xml version="1.0" encoding="utf-8"?>
<!-- Generator: Adobe Illustrator 22.0.0, SVG Export Plug-In . SVG Version: 6.00 Build 0)  -->
<svg version="1.1" id="Layer_1" xmlns="http://www.w3.org/2000/svg" xmlns:xlink="http://www.w3.org/1999/xlink" x="0px" y="0px"
	 viewBox="0 0 418.2 338.4" style="enable-background:new 0 0 418.2 338.4;" xml:space="preserve">
<style type="text/css">
	.st0{fill:#FFFFFF;}
	.st1{fill:#90FFC4;stroke:#343E5A;stroke-width:2.33;stroke-miterlimit:10;}
</style>
<title>dra-05</title>
<path class="st0" d="M135,336.2c-0.3,0-0.5-0.2-0.6-0.4c0,0,0,0,0,0l-3-11.3H127c-0.2,0-0.3,0.1-0.3,0.3l-2.1,11
	c0,0.2-0.2,0.4-0.5,0.4l-5.4-0.1c-0.2,0-0.4-0.1-0.4-0.3c0,0,0-0.1,0-0.1l5.5-29.4c0-0.3,0.2-0.4,0.5-0.4l11.5,0.1
	c5.4,0.1,8.5,3.1,8.5,7.6c0.1,4.6-2.8,8.7-7.1,10.2l3.4,12.1c0.1,0.2,0,0.4-0.1,0.5c-0.1,0-0.1,0.1-0.2,0L135,336.2z M138.1,314.3
	c0-1.9-1.3-3-3.4-3l-5.1-0.1c-0.2,0-0.3,0.1-0.3,0.3l-1.4,7.3c0,0.2,0,0.3,0.2,0.3l5.1,0.1c2.6,0.1,4.7-1.9,4.9-4.5
	C138.1,314.5,138.1,314.4,138.1,314.3L138.1,314.3z"/>
<path class="st0" d="M147.1,325l3.5-18.6c0-0.2,0.2-0.4,0.5-0.4l5.4,0.1c0.2,0,0.4,0.1,0.4,0.3c0,0,0,0.1,0,0.1l-3.6,19
	c-0.7,3.8,1,5.9,4,5.9s4.9-1.3,5.8-5.8l3.6-19c0-0.3,0.2-0.4,0.5-0.4l5.4,0.1c0.2,0,0.4,0.1,0.4,0.3c0,0,0,0.1,0,0.1l-3.6,19
	c-1.6,8.4-5.9,11.3-12.6,11.2C149.7,336.8,145.7,332.5,147.1,325z"/>
<path class="st0" d="M178.4,306.7c0-0.3,0.2-0.4,0.5-0.4l5.1,0.1c0.3,0,0.6,0.1,0.7,0.5l6.7,19.6h0.2l3.7-19.5
	c0-0.3,0.2-0.4,0.5-0.4l4.8,0c0.2,0,0.4,0.1,0.4,0.3c0,0,0,0.1,0,0.1l-5.5,29.4c0,0.3-0.2,0.4-0.5,0.4l-5.1-0.1
	c-0.3,0-0.5-0.2-0.6-0.5l-6.8-19.6h-0.2l-3.7,19.5c0,0.2-0.2,0.4-0.5,0.4l-4.8,0c-0.2,0-0.4-0.1-0.4-0.3c0,0,0-0.1,0-0.1
	L178.4,306.7z"/>
<path class="st0" d="M206.6,307c0-0.3,0.2-0.4,0.5-0.4l5.1,0.1c0.3,0,0.6,0.1,0.7,0.5l6.7,19.6h0.2l3.7-19.5c0-0.3,0.2-0.4,0.5-0.4
	l4.8,0c0.2,0,0.4,0.1,0.4,0.3c0,0,0,0.1,0,0.1l-5.5,29.4c0,0.3-0.2,0.4-0.5,0.4l-5.1-0.1c-0.3,0-0.5-0.2-0.6-0.5l-6.8-19.6h-0.2
	l-3.7,19.5c0,0.2-0.2,0.4-0.5,0.4l-4.8,0c-0.2,0-0.4-0.1-0.4-0.3c0,0,0-0.1,0-0.1L206.6,307z"/>
<path class="st0" d="M234.9,307.3c0-0.3,0.2-0.4,0.5-0.4l18.7,0.2c0.2,0,0.4,0.1,0.4,0.3c0,0,0,0.1,0,0.1l-0.9,4.5
	c0,0.2-0.2,0.4-0.5,0.4l-12.6-0.1c-0.2,0-0.3,0.1-0.3,0.3l-1.2,6.4c0,0.2,0,0.3,0.2,0.3l10.5,0.1c0.2,0,0.4,0.1,0.4,0.3
	c0,0,0,0.1,0,0.1l-0.9,4.5c0,0.3-0.3,0.4-0.5,0.4l-10.5-0.1c-0.2,0-0.3,0.1-0.3,0.3l-1.2,6.6c0,0.2,0,0.3,0.2,0.3l12.6,0.1
	c0.2,0,0.4,0.1,0.4,0.3c0,0,0,0.1,0,0.1l-0.9,4.5c0,0.3-0.2,0.4-0.5,0.4l-18.6-0.2c-0.2,0-0.4-0.1-0.4-0.3c0,0,0-0.1,0-0.1
	L234.9,307.3z"/>
<path class="st0" d="M270.1,337.7c-0.3,0-0.5-0.2-0.6-0.4c0,0,0,0,0,0l-3-11.3h-4.4c-0.2,0-0.3,0.1-0.3,0.3l-2.1,11
	c0,0.2-0.2,0.4-0.5,0.4l-5.4-0.1c-0.2,0-0.4-0.1-0.4-0.3c0,0,0-0.1,0-0.1l5.5-29.4c0-0.3,0.2-0.4,0.5-0.4l11.5,0.1
	c5.4,0.1,8.5,3.1,8.5,7.6c0.1,4.6-2.8,8.7-7.1,10.2l3.4,12.1c0.1,0.2,0,0.4-0.1,0.5c-0.1,0-0.1,0.1-0.2,0L270.1,337.7z M273.2,315.7
	c0-1.9-1.3-3-3.4-3l-5.1-0.1c-0.2,0-0.3,0.1-0.3,0.3l-1.3,7.3c0,0.2,0,0.3,0.2,0.3l5.1,0.1c2.6,0.1,4.7-1.9,4.9-4.5
	C273.2,316,273.2,315.9,273.2,315.7L273.2,315.7z"/>
<path class="st0" d="M279.5,334.1c-0.2-0.2-0.1-0.5,0-0.7l3.9-3.6c0.2-0.2,0.5-0.2,0.6,0c1.9,1.9,4.4,3,7.1,3.1c3.4,0,5.6-2,5.6-4.5
	c0-1.5-0.9-2.4-3.9-2.9l-1.5-0.2c-5.1-0.8-7.9-3.4-7.8-7.7c0.1-6.4,5.1-10.5,12-10.5c3.4-0.1,6.8,1.1,9.4,3.3c0.2,0.2,0.2,0.4,0,0.7
	l-3.2,3.6c-0.2,0.2-0.5,0.3-0.6,0.1c-1.7-1.4-3.9-2.2-6.1-2.3c-2.9,0-4.9,1.8-4.9,4.1c0,1.5,0.9,2.5,3.9,3l1.5,0.2
	c5.1,0.8,7.9,3.3,7.9,7.4c-0.1,7.1-5.6,11.2-13.2,11.2C285.8,338.3,281.4,336.4,279.5,334.1z"/>
<path class="st0" d="M204.9,74.8c-1.1-1.7-3.4-2.2-5.1-1.2c0,0,0,0,0,0l-16,10c-1.7,1.1-2.3,3.4-1.2,5.1c1.1,1.7,3.4,2.3,5.1,1.2
	l0,0l16-10C205.5,78.8,206,76.5,204.9,74.8C204.9,74.8,204.9,74.8,204.9,74.8z"/>
<path class="st0" d="M180,90.5c-1.1-1.7-3.4-2.3-5.1-1.2c0,0,0,0,0,0h-0.1c-1.7,1.1-2.3,3.4-1.2,5.1c1.1,1.7,3.4,2.3,5.1,1.2h0.1
	C180.5,94.5,181,92.2,180,90.5C180,90.5,180,90.5,180,90.5z"/>
<path class="st0" d="M323.1,1.6c-1-1.5-3.1-2.1-4.7-1.2L209.1,55.3c-1.8,0.9-2.6,3.1-1.7,5c0.3,0.7,0.9,1.2,1.6,1.6l21.5,11.4
	l-49.1,30.8c-1.7,1.1-2.3,3.4-1.2,5.1c0.3,0.6,0.8,1,1.4,1.3l23.9,12.7L136,182.6c-1.5,1.4-1.6,3.7-0.2,5.2c1.1,1.2,2.9,1.5,4.4,0.8
	l112.3-62.3c1.8-1,2.5-3.2,1.5-5c-0.3-0.6-0.9-1.1-1.5-1.5l-21.9-11.6l51-32.8c1.7-1.1,2.2-3.4,1.1-5.1c-0.3-0.5-0.8-1-1.4-1.3
	l-18.9-9.9l60.2-52.6C323.9,5.2,324.2,3.2,323.1,1.6z M253.4,57.1c-1.5,1.4-1.6,3.7-0.3,5.2c0.3,0.3,0.6,0.6,1,0.8l18,9.4l-51,32.8
	c-1.7,1.1-2.2,3.4-1.1,5.1c0.3,0.5,0.8,1,1.4,1.3l21.4,11.4l-74,41.1l45.6-38.9c1.6-1.3,1.7-3.7,0.4-5.2c-0.3-0.3-0.7-0.6-1.1-0.9
	L190.7,107l49.1-30.9c1.7-1.1,2.3-3.4,1.2-5.1c-0.3-0.6-0.8-1-1.4-1.3l-20.8-11l77-38.7L253.4,57.1z"/>
<path class="st1" d="M219.5,108.7c0.1,1.3,0.8,2.5,2,3.1l21.4,11.4l-74,41.1l45.6-38.9c1.6-1.3,1.7-3.7,0.4-5.2
	c-0.3-0.3-0.7-0.6-1.1-0.9L190.8,107l49.1-30.9c1.7-1.1,2.3-3.4,1.2-5.1c-0.3-0.6-0.8-1-1.4-1.3l-20.9-11.1l77-38.7l-42.4,37.1
	c-1.5,1.4-1.6,3.7-0.3,5.2c0.3,0.3,0.6,0.6,1,0.8l18,9.4l-51,32.8C220,106.1,219.4,107.4,219.5,108.7z"/>
<path class="st0" d="M274.7,128.3c-1-1.8-3.2-2.4-5-1.4h-0.1c-1.8,1-2.4,3.2-1.4,5c1,1.8,3.2,2.4,5,1.4h0.1
	C275.1,132.3,275.7,130.1,274.7,128.3C274.7,128.3,274.7,128.3,274.7,128.3z"/>
<path class="st0" d="M265.4,133.5c-1-1.8-3.2-2.4-5-1.4l-16.5,9.1c-1.8,1-2.4,3.2-1.4,5s3.2,2.4,5,1.4l0,0l16.5-9.1
	C265.7,137.5,266.4,135.2,265.4,133.5z"/>
<path class="st0" d="M36.1,283.5c-3.9,3.9-9.4,5.5-15.2,5.5H0v-56.4h20.9c5.9,0,11.3,1.7,15.2,5.5c6.6,6.6,5.9,13.8,5.9,22.6
	S42.7,276.8,36.1,283.5z M26.6,248.1c-1.3-1.9-3.2-3.2-6.6-3.2h-6.1v31.7H20c3.5,0,5.4-1.3,6.6-3.2c1.1-1.6,1.5-3.1,1.5-12.7
	S27.7,249.7,26.6,248.1L26.6,248.1z"/>
<path class="st0" d="M77.5,289l-2.6-8.4H57.6l-2.8,8.4H40.3l20.5-56.4h10.7L92,289H77.5z M66.5,254l-5.1,15h9.8L66.5,254z"/>
<path class="st0" d="M121.5,289l-10-21h-4.7v21H93v-56.4h22.3c12.5,0,19.2,8.9,19.2,18.1c0,6.3-3.5,12-9.2,14.7l12.2,23.5L121.5,289
	z M114.7,245h-7.8v11.4h7.8c3.2,0.1,5.8-2.3,5.9-5.5c0.1-3.2-2.3-5.8-5.5-5.9C115,245,114.8,245,114.7,245z"/>
<path class="st0" d="M164.3,245v44h-13.9v-44h-13.9v-12.4h41.6V245L164.3,245z"/>
<path class="st0" d="M220.2,289v-27l-8,13.9h-8.9l-8-13.9v27h-13.9v-56.4h13.6l12.7,24.9l12.7-24.9h13.6V289L220.2,289z"/>
<path class="st0" d="M276.1,283.1c-4.1,4.1-8.9,6.3-15.8,6.3s-11.6-2.2-15.8-6.3c-5.9-5.9-5.7-13.9-5.7-22.3s-0.2-16.4,5.7-22.3
	c4.1-4.1,8.9-6.3,15.8-6.3s11.6,2.2,15.8,6.3c5.9,5.9,5.7,13.9,5.7,22.3S282.1,277.2,276.1,283.1z M265.9,246.9
	c-2.8-3.1-7.5-3.3-10.6-0.5c-0.2,0.2-0.4,0.3-0.5,0.5c-1.3,1.7-2.1,3.6-2.1,13.9s0.8,12.1,2.1,13.8c2.6,3.1,7.3,3.4,10.3,0.8
	c0.3-0.2,0.5-0.5,0.8-0.8c1.3-1.7,2.1-3.5,2.1-13.8S267.2,248.6,265.9,246.9z"/>
<path class="st0" d="M307,289.5c-11.7,0-21.3-7.9-21.3-20.3v-36.6h13.9v36.2c0,5.2,2.9,8.2,7.4,8.2s7.6-3,7.6-8.2v-36.2h13.9v36.6
	C328.5,281.6,318.7,289.5,307,289.5z"/>
<path class="st0" d="M358.6,245v44h-13.9v-44h-13.9v-12.4h41.6V245L358.6,245z"/>
<path class="st0" d="M404.4,289v-22.3h-14.7V289h-13.9v-56.4h13.9v21.7h14.7v-21.7h13.9V289L404.4,289z"/>
</svg>
