<svg id="Layer_1" data-name="Layer 1" xmlns="http://www.w3.org/2000/svg" viewBox="0 0 720 576"><defs><style>.cls-1{fill:#343e5a;}.cls-2{fill:#90ffc4;stroke:#343e5a;stroke-miterlimit:10;stroke-width:2.33px;}</style></defs><title>dra</title><path class="cls-1" d="M280,448.33a.51.51,0,0,1-.58-.45l-3-11.3-4.38,0c-.18,0-.31.09-.32.26l-2.09,11a.48.48,0,0,1-.45.44l-5.41-.06a.37.37,0,0,1-.4-.45l5.55-29.44a.49.49,0,0,1,.5-.44l11.53.13c5.41.06,8.5,3.13,8.46,7.6a10.76,10.76,0,0,1-7.13,10.25l3.35,12.06a.36.36,0,0,1-.36.53Zm3.1-21.92c0-1.88-1.31-3-3.41-3l-5.14-.06c-.18,0-.27.09-.32.27l-1.38,7.32c0,.18,0,.27.22.27l5.14.06A4.66,4.66,0,0,0,283.07,426.41Z"/><path class="cls-1" d="M292.12,437.15l3.51-18.6a.48.48,0,0,1,.45-.44l5.41.06a.37.37,0,0,1,.4.45l-3.56,19c-.71,3.79,1,5.87,4,5.9s4.93-1.33,5.79-5.79l3.61-19a.49.49,0,0,1,.5-.44l5.36.06a.37.37,0,0,1,.4.45l-3.61,19.05c-1.57,8.43-5.93,11.29-12.64,11.22C294.72,449,290.7,444.69,292.12,437.15Z"/><path class="cls-1" d="M323.44,418.85a.49.49,0,0,1,.5-.44l5.1.06a.6.6,0,0,1,.67.45l6.71,19.61h.18l3.7-19.5a.49.49,0,0,1,.5-.44l4.83.05a.37.37,0,0,1,.4.45l-5.55,29.44a.49.49,0,0,1-.5.44l-5.14-.06a.65.65,0,0,1-.62-.45l-6.76-19.61h-.22l-3.66,19.5a.48.48,0,0,1-.45.44l-4.83-.05a.37.37,0,0,1-.4-.45Z"/><path class="cls-1" d="M351.65,419.16a.49.49,0,0,1,.5-.44l5.1.06a.6.6,0,0,1,.67.45l6.71,19.61h.18l3.7-19.5a.49.49,0,0,1,.5-.44l4.83.05a.37.37,0,0,1,.4.45l-5.55,29.44a.49.49,0,0,1-.5.44l-5.14-.06a.65.65,0,0,1-.62-.45l-6.76-19.61h-.22l-3.66,19.5a.48.48,0,0,1-.45.44l-4.83-.05a.37.37,0,0,1-.4-.45Z"/><path class="cls-1" d="M379.86,419.47a.49.49,0,0,1,.5-.44l18.68.21a.34.34,0,0,1,.35.45l-.85,4.55a.52.52,0,0,1-.5.44l-12.61-.14c-.18,0-.27.09-.32.27l-1.19,6.38c0,.18,0,.27.22.27l10.46.11a.34.34,0,0,1,.35.45l-.85,4.46a.53.53,0,0,1-.54.44l-10.46-.11a.3.3,0,0,0-.32.26l-1.24,6.65c0,.18,0,.27.22.27l12.61.14a.34.34,0,0,1,.35.45l-.9,4.55a.49.49,0,0,1-.5.44l-18.64-.2a.37.37,0,0,1-.4-.45Z"/><path class="cls-1" d="M415.11,449.81a.51.51,0,0,1-.58-.45l-3-11.3-4.38,0c-.18,0-.31.09-.32.26l-2.09,11a.48.48,0,0,1-.45.44l-5.41-.06a.37.37,0,0,1-.4-.45l5.55-29.44a.49.49,0,0,1,.5-.44l11.53.13c5.41.06,8.5,3.13,8.46,7.6a10.76,10.76,0,0,1-7.13,10.25l3.35,12.06a.36.36,0,0,1-.36.53Zm3.1-21.92c0-1.88-1.31-3-3.41-3l-5.14-.06c-.18,0-.27.09-.32.27L408,432.39c0,.18,0,.27.22.27l5.14.06A4.66,4.66,0,0,0,418.22,427.89Z"/><path class="cls-1" d="M424.5,446.29a.54.54,0,0,1,.05-.71l3.88-3.62c.23-.22.49-.22.63,0a10.11,10.11,0,0,0,7.12,3.07c3.35,0,5.61-2,5.64-4.5,0-1.47-.87-2.42-3.86-2.9l-1.47-.24c-5.09-.82-7.88-3.35-7.83-7.69.07-6.44,5.12-10.54,12.05-10.46a14.39,14.39,0,0,1,9.44,3.32c.22.18.22.36,0,.67l-3.21,3.63c-.23.22-.45.26-.63.13a9.82,9.82,0,0,0-6.15-2.26c-2.86,0-4.89,1.78-4.92,4.1,0,1.47.91,2.47,3.86,2.95l1.47.24c5.09.82,7.92,3.26,7.88,7.37-.08,7.11-5.58,11.25-13.18,11.17C430.76,450.47,426.35,448.55,424.5,446.29Z"/><path class="cls-1" d="M366.1,185.32a3.69,3.69,0,0,0-5.09-1.16l-16,10a3.69,3.69,0,1,0,3.93,6.26l16-10A3.69,3.69,0,0,0,366.1,185.32Z"/><path class="cls-1" d="M341.15,201a3.69,3.69,0,0,0-5.09-1.17l-.07,0a3.69,3.69,0,1,0,3.92,6.26l.07,0A3.69,3.69,0,0,0,341.15,201Z"/><path class="cls-1" d="M484.32,112.16a3.7,3.7,0,0,0-4.72-1.24l-109.33,54.9a3.69,3.69,0,0,0-.08,6.56l21.54,11.45-49.14,30.84a3.69,3.69,0,0,0,.23,6.39l23.93,12.72-69.6,59.35a3.69,3.69,0,0,0,4.18,6l112.27-62.3a3.7,3.7,0,0,0,0-6.5l-21.88-11.62,51-32.85a3.69,3.69,0,0,0-.29-6.38l-18.89-9.86L483.69,117A3.69,3.69,0,0,0,484.32,112.16Zm-69.73,55.5a3.69,3.69,0,0,0,.73,6l18,9.42-51,32.82a3.68,3.68,0,0,0,.26,6.36l21.43,11.4-74,41.08,45.64-38.91a3.7,3.7,0,0,0-.66-6.07l-23.09-12.27,49.13-30.85a3.69,3.69,0,0,0-.23-6.39L380,169.22l77-38.7Z"/><path class="cls-2" d="M380.68,219.21a3.68,3.68,0,0,0,2,3.1l21.43,11.4-74,41.08,45.64-38.91a3.7,3.7,0,0,0-.66-6.07l-23.09-12.27,49.13-30.85a3.69,3.69,0,0,0-.23-6.39L380,169.22l77-38.7-42.43,37.14a3.69,3.69,0,0,0,.73,6l18,9.42-51,32.82A3.7,3.7,0,0,0,380.68,219.21Z"/><path class="cls-1" d="M435.93,238.84a3.69,3.69,0,0,0-5-1.43l-.08,0a3.69,3.69,0,1,0,3.59,6.46l.08,0A3.69,3.69,0,0,0,435.93,238.84Z"/><path class="cls-1" d="M426.57,244a3.69,3.69,0,0,0-5-1.44l-16.48,9.15a3.69,3.69,0,1,0,3.58,6.46l16.48-9.15A3.69,3.69,0,0,0,426.57,244Z"/><path class="cls-1" d="M181.11,395.62c-3.88,3.88-9.35,5.54-15.21,5.54H145V344.77h20.91c5.86,0,11.32,1.66,15.21,5.54,6.57,6.58,5.86,13.78,5.86,22.65S187.69,389,181.11,395.62Zm-9.51-35.32c-1.27-1.9-3.17-3.17-6.65-3.17h-6.1V388.8H165c3.48,0,5.39-1.27,6.65-3.17,1.11-1.59,1.51-3.09,1.51-12.67S172.72,361.88,171.61,360.29Z"/><path class="cls-1" d="M222.54,401.16l-2.61-8.4H202.58l-2.77,8.4H185.32l20.51-56.39h10.69L237,401.16Zm-11-35-5.07,15h9.82Z"/><path class="cls-1" d="M266.5,401.16l-10-21h-4.67v21H238V344.77h22.33c12.51,0,19.25,8.87,19.25,18.14a16.22,16.22,0,0,1-9.19,14.73l12.2,23.52Zm-6.81-44h-7.84v11.41h7.84a5.71,5.71,0,1,0,0-11.41Z"/><path class="cls-1" d="M309.28,357.12v44H295.42v-44H281.56V344.77h41.58v12.36Z"/><path class="cls-1" d="M365.2,401.16v-27l-8,13.94h-8.87l-8-13.94v27H326.47V344.77h13.62l12.67,24.87,12.67-24.87h13.62v56.39Z"/><path class="cls-1" d="M421.12,395.3c-4.12,4.12-8.87,6.34-15.76,6.34s-11.64-2.22-15.76-6.34c-5.94-5.94-5.7-13.86-5.7-22.33s-.24-16.39,5.7-22.33c4.12-4.12,8.87-6.34,15.76-6.34s11.64,2.22,15.76,6.34c5.94,5.94,5.7,13.86,5.7,22.33S427.06,389.36,421.12,395.3ZM410.91,359.1a7.48,7.48,0,0,0-11.09,0c-1.27,1.66-2.06,3.56-2.06,13.86s.79,12.12,2.06,13.78a7.33,7.33,0,0,0,11.09,0c1.27-1.66,2.06-3.49,2.06-13.78S412.17,360.77,410.91,359.1Z"/><path class="cls-1" d="M452,401.63c-11.72,0-21.3-7.92-21.3-20.28V344.77h13.86V381c0,5.23,2.85,8.24,7.44,8.24s7.6-3,7.6-8.24V344.77h13.86v36.59C473.48,393.71,463.74,401.63,452,401.63Z"/><path class="cls-1" d="M503.58,357.12v44H489.72v-44H475.86V344.77h41.58v12.36Z"/><path class="cls-1" d="M549.37,401.16V378.83H534.64v22.33H520.77V344.77h13.86v21.7h14.73v-21.7h13.86v56.39Z"/></svg>